<svg version="1.1" id="圖層_1" xmlns="http://www.w3.org/2000/svg" xmlns:xlink="http://www.w3.org/1999/xlink" x="0px" y="0px"
	 viewBox="0 0 424.1 424.1" style="enable-background:new 0 0 424.1 424.1;" xml:space="preserve">
<style type="text/css">
	.st0{fill:none;}
	.st1{fill:#FFFFFF;}
</style>
<title>資產 3</title>
<g id="圖層_2">
	<g id="圖層_1-2">
		<rect y="0" class="st0" width="424.1" height="424.1"/>
		<path class="st1" d="M314.5,265.3c-1-4.5-3.7-8.4-7.5-10.9c-0.8-0.4-1.6-0.7-2.5-0.9l0,0c-0.7-0.1-1.3-0.1-2-0.1h-2V76.5
			c0.1-2.6,0.1-5.2,0-7.8c-0.9-12.3-5-24.1-11.9-34.3c-6.3-9.1-14.7-16.7-24.4-22c-10.1-5.8-19-8-25.6-9.5
			C230.9,1.1,223,0.1,215.2,0c-1.3,0-2.4,0-3.1,0s-1.8,0-3.1,0c-7.9,0.1-15.8,1.1-23.4,2.9c-6.6,1.6-15.6,3.7-25.6,9.5
			c-9.7,5.3-18.1,12.9-24.4,22c-6.9,10.2-11,22-11.9,34.3c-0.1,2.6-0.1,5.2,0,7.8v176.8h-2c-0.7,0-1.3,0-2,0.1l0,0
			c-0.9,0.2-1.7,0.5-2.5,0.9c-3.8,2.6-6.4,6.5-7.4,10.9c-0.8,3.2-0.9,6.5-0.1,9.7c1.4,5.8,6.1,12.7,11.9,13.1c0.4,0,0.8,0,1.2,0
			c4.4,0,28.7-0.4,89.5,0c60.8-0.4,85,0,89.5,0c0.4,0,0.8,0,1.1,0c5.9-0.4,10.5-7.4,11.9-13.1C315.4,271.8,315.3,268.4,314.5,265.3z
			 M140.2,136.9c0-15.2,12.4-27.6,27.6-27.6c15.2,0,27.6,12.4,27.6,27.6s-12.4,27.6-27.6,27.6S140.2,152.2,140.2,136.9L140.2,136.9z
			 M261.2,224.5c-2,0-3.6-1.6-3.6-3.7c0-0.9,0.3-1.7,0.9-2.3c-0.5-0.2-1-0.4-1.5-0.5c-2.1-0.4-6.1,15-10.1,15.4
			c-5.6,0.6-10.7-28.7-17.4-28.5c-6,0.1-8.4,23.5-15.5,23.6c-4.5,0.1-6.4-9.4-10.9-9.2c-6.1,0.3-7.4,17.9-12.8,18.2
			c-6.4,0.4-11.8-25.4-18.3-24.6c-1.5,0.2-3.2,1.8-6.2,4.6l-0.5,0.5c1.6,1.3,1.9,3.7,0.6,5.3c-1.3,1.6-3.7,1.9-5.3,0.6
			s-1.9-3.7-0.6-5.3c1-1.2,2.7-1.7,4.2-1.2c2.2-2.8,5.8-7.1,8.4-7.3c6.6-0.5,10.8,25,17.1,24.8c5-0.2,6.4-16.4,13-16.9
			c4.7-0.4,6.7,7.7,11.3,7.4c7.5-0.5,9.9-23.3,15.6-23.1c2.1,0.1,3.7,3.1,6.8,9c1.9,3.6,2.3,5.4,5.1,11.3c3.7,8.1,4.6,8.3,5.1,8.3
			c3.7,0.1,5.2-14.5,10-14.7c1.1,0.1,2.2,0.6,2.9,1.5c0.5-0.3,1.2-0.5,1.8-0.5c2,0,3.7,1.6,3.7,3.7
			C264.9,222.9,263.2,224.5,261.2,224.5L261.2,224.5z M251.2,164.5c-12.1,0-21.9-9.8-21.9-21.9c0-12.1,9.8-21.9,21.9-21.9
			c12.1,0,21.9,9.8,21.9,21.9C273.1,154.7,263.3,164.5,251.2,164.5L251.2,164.5z"/>
		<circle class="st1" cx="167.8" cy="136.9" r="17.1"/>
		<circle class="st1" cx="251.2" cy="142.6" r="13.5"/>
		<path class="st1" d="M166.9,295h-6.4v124.2c0.3,1.7,1.3,3.2,2.8,4.1c0.8,0.5,1.7,0.7,2.6,0.8h2c0.9-0.1,1.8-0.3,2.6-0.8
			c1.5-0.9,2.5-2.4,2.8-4.1V295H166.9z"/>
		<path class="st1" d="M314.5,416.7c-0.1-0.9-0.3-1.8-0.8-2.6c-0.9-1.5-2.4-2.5-4.1-2.8h-45.4V295h-12.8v122.7l0,0v1.5
			c0.2,1,0.6,1.9,1.2,2.7l0.2,0.2c0.1,0.1,0.2,0.2,0.3,0.3l0.3,0.3l0.2,0.2c0.8,0.6,1.7,1.1,2.7,1.2h53.2c1.7-0.3,3.2-1.3,4.1-2.8
			c0.5-0.8,0.7-1.7,0.8-2.6c0-0.8,0-0.6,0-1l0,0C314.5,417.4,314.5,417.6,314.5,416.7z"/>
	</g>
</g>
</svg>
