<svg version="1.1" id="Layer_1" xmlns="http://www.w3.org/2000/svg" x="0px" y="0px"
	 viewBox="0 0 512 512" style="enable-background:new 0 0 512 512;" xml:space="preserve">
<style type="text/css">
	.st0{fill:#FFFFFF;}
</style>
<g>
	<g>
		<path class="st0" d="M442.7,127.3h-13.5V86.6H82.7v110c0,33.1,9.4,65.4,27.2,93.2c0.1,0.1,0.2,0.3,0.2,0.4
			c13.5,21,36.9,33.5,61.8,33.5h18.7h130.8H340c24.9,0,48.3-12.5,61.8-33.5c0.1-0.1,0.2-0.3,0.2-0.4c4.9-7.7,9.1-15.7,12.7-23.9
			h27.9c38.2,0,69.3-31.1,69.3-69.3C512,158.4,480.9,127.3,442.7,127.3z M442.7,235.4h-17.9c2.9-12.7,4.4-25.7,4.4-38.8v-38.8h13.5
			c21.4,0,38.8,17.4,38.8,38.8C481.6,218,464.2,235.4,442.7,235.4z"/>
	</g>
</g>
<g>
	<g>
		<path class="st0" d="M328.5,354.1H183.5H0v5.1c0,36.6,29.7,66.3,66.3,66.3h379.4c36.6,0,66.3-29.8,66.3-66.3v-5.1H328.5z"/>
	</g>
</g>
</svg>
